<svg width="146" height="146" viewBox="0 0 146 146" fill="none" xmlns="http://www.w3.org/2000/svg">
<g filter="url(#filter0_d_68_308)">
<rect x="17" y="17" width="112.115" height="112.115" rx="21.4435" fill="white"/>
<circle cx="111.707" cy="85.262" r="0.356987" fill="#D9D9D9"/>
<circle cx="73.1149" cy="74.541" r="37.8835" stroke="url(#paint0_linear_68_308)" stroke-width="6.43304"/>
<path d="M62.5625 82.5474L71.1005 59.0103C71.7839 57.1262 74.4486 57.1262 75.1321 59.0103L83.6701 82.5474C84.4139 84.598 81.9773 86.3204 80.2924 84.935L74.4782 80.1546C73.6868 79.504 72.5458 79.504 71.7544 80.1546L65.9402 84.935C64.2553 86.3204 61.8187 84.598 62.5625 82.5474Z" fill="url(#paint1_linear_68_308)"/>
<path d="M69.3305 75.9512L72.4378 66.8683C72.6583 66.2238 73.5699 66.2238 73.7904 66.8683L76.8977 75.9512C77.1343 76.6429 76.3027 77.2017 75.7517 76.7213L73.5838 74.8314C73.3146 74.5967 72.9136 74.5967 72.6444 74.8314L70.4765 76.7213C69.9255 77.2017 69.0939 76.6429 69.3305 75.9512Z" fill="white"/>
</g>
<defs>
<filter id="filter0_d_68_308" x="0.477827" y="0.477827" width="145.159" height="145.159" filterUnits="userSpaceOnUse" color-interpolation-filters="sRGB">
<feFlood flood-opacity="0" result="BackgroundImageFix"/>
<feColorMatrix in="SourceAlpha" type="matrix" values="0 0 0 0 0 0 0 0 0 0 0 0 0 0 0 0 0 0 127 0" result="hardAlpha"/>
<feOffset/>
<feGaussianBlur stdDeviation="8.26109"/>
<feComposite in2="hardAlpha" operator="out"/>
<feColorMatrix type="matrix" values="0 0 0 0 0.466667 0 0 0 0 0.466667 0 0 0 0 0.466667 0 0 0 0.25 0"/>
<feBlend mode="normal" in2="BackgroundImageFix" result="effect1_dropShadow_68_308"/>
<feBlend mode="normal" in="SourceGraphic" in2="effect1_dropShadow_68_308" result="shape"/>
</filter>
<linearGradient id="paint0_linear_68_308" x1="48.8261" y1="82.8187" x2="107.431" y2="66.1396" gradientUnits="userSpaceOnUse">
<stop stop-color="#5226FF"/>
<stop offset="0.529" stop-color="#B12772"/>
<stop offset="0.999" stop-color="#FF9090"/>
</linearGradient>
<linearGradient id="paint1_linear_68_308" x1="65.3017" y1="75.3511" x2="84.8511" y2="71.3147" gradientUnits="userSpaceOnUse">
<stop stop-color="#5226FF"/>
<stop offset="0.529" stop-color="#B12772"/>
<stop offset="0.999" stop-color="#FF9090"/>
</linearGradient>
</defs>
</svg>
